<svg width="47.341" height="56" viewBox="0 0 47.341 56" class="dd-glyph-svg dd-glyph-elevated" aria-hidden="true">
<path d="M14.1084,43.6255l.0957.3064a2.415,2.415,0,0,1-.56.068H6.7139a2.1166,2.1166,0,0,1-1.149-.3106,1.7539,1.7539,0,0,1-.7133-1.0318l-.587-1.8794a2.9344,2.9344,0,0,0-.5366-1.0988,3.3837,3.3837,0,0,0-.94-.73,5.1128,5.1128,0,0,1-1.939-1.9048A6.1739,6.1739,0,0,1,0,33.8647V22.1688A6.2909,6.2909,0,0,1,.8491,18.947a4.975,4.975,0,0,1,1.939-1.8962,2.8881,2.8881,0,0,0,.94-.7047,3.0245,3.0245,0,0,0,.5366-1.1075l.587-1.8794a1.7639,1.7639,0,0,1,.7133-1.049A2.1208,2.1208,0,0,1,6.7139,12h6.9306a2.2861,2.2861,0,0,1,.5635.0725l-.0854.2742a1.8226,1.8226,0,0,1-.2637.6265,1.48,1.48,0,0,1-.4639.3195l-.0293.0147-.0288.0155c-.2056.1115-.3945.2445-.5874.3723H7.3921a1.4418,1.4418,0,0,0-.834.23,1.1531,1.1531,0,0,0-.3843.6661l-.666,1.9664h4.6436a9.1622,9.1622,0,0,0-.8306,2.0408H5.5049a3.5094,3.5094,0,0,0-3.5093,3.5095V33.8916a3.51,3.51,0,0,0,3.5093,3.51H9.3193a9.049,9.049,0,0,0,.8365,2.0406H5.51l.666,2.1747a1.1418,1.1418,0,0,0,.3549.458,1.4538,1.4538,0,0,0,.8272.23h5.3994c.1846.1235.3643.253.5606.362a2.0286,2.0286,0,0,1,.5595.4127A1.62,1.62,0,0,1,14.1084,43.6255Zm32.88-21.1546a1.2387,1.2387,0,0,0-.9395-.3692H46a6.1929,6.1929,0,0,0-.832-3.1465,5.1066,5.1066,0,0,0-1.938-1.9044,2.926,2.926,0,0,1-.9483-.7215,3.2987,3.2987,0,0,1-.5444-1.0907l-.5718-1.8794a1.7454,1.7454,0,0,0-.7212-1.049A2.1308,2.1308,0,0,0,39.3037,12H32.3726a2.3514,2.3514,0,0,0-.5767.073l.082.2694a1.9662,1.9662,0,0,0,.2862.6253,1.5365,1.5365,0,0,0,.4809.3347l.0293.0148.0283.0158a8.0223,8.0223,0,0,1,3.0362,2.9758,8.88,8.88,0,0,1,.9438,2.29h3.8125a3.5094,3.5094,0,0,1,3.5093,3.5095V33.8916a3.51,3.51,0,0,1-3.5093,3.51H36.69a8.8289,8.8289,0,0,1-.95,2.2876,8.0342,8.0342,0,0,1-3.0571,2.989,1.25,1.25,0,0,0-.7988.9807l-.082.2692A2.35,2.35,0,0,0,32.3726,44h6.9311a2.2231,2.2231,0,0,0,1.1406-.2934,1.681,1.681,0,0,0,.7212-1.049l.5718-1.8794a2.6882,2.6882,0,0,1,1.4927-1.829,5.1012,5.1012,0,0,0,1.938-1.9048,6.1644,6.1644,0,0,0,.832-3.18v-6.83h.0493a1.2112,1.2112,0,0,0,.9395-.3859,1.4356,1.4356,0,0,0,.352-1.0069V23.4944A1.4223,1.4223,0,0,0,46.9888,22.4709ZM31.7314,40.9186a3.7586,3.7586,0,0,0-1.1186.8615,2.9147,2.9147,0,0,0-.2524.397,4.3847,4.3847,0,0,0-.39.9l-.6743,2.2174a1.9877,1.9877,0,0,1-.8506,1.2377,2.6271,2.6271,0,0,1-1.3467.3462H18.9214a2.4984,2.4984,0,0,1-1.3555-.3665,2.0673,2.0673,0,0,1-.8413-1.2174l-.6929-2.2174a3.9959,3.9959,0,0,0-.3789-.8989,2.7,2.7,0,0,0-.2544-.3977,3.963,3.963,0,0,0-1.0732-.8384c-.0132-.0074-.0225-.0157-.0356-.0231a5.9359,5.9359,0,0,1-1.7466-1.4768,6.485,6.485,0,0,1-.541-.7706,7.23,7.23,0,0,1-.5743-1.27A7.383,7.383,0,0,1,11,34.92V21.12a7.573,7.573,0,0,1,.4287-2.5211,7.2553,7.2553,0,0,1,.5733-1.28,6.4177,6.4177,0,0,1,.53-.7606A5.7452,5.7452,0,0,1,14.29,15.0814c.0283-.0141.0478-.0315.0751-.0459a3.3619,3.3619,0,0,0,1.0337-.7857,2.7914,2.7914,0,0,0,.2559-.4056,4.0936,4.0936,0,0,0,.3774-.9011l.6929-2.2175a2.0789,2.0789,0,0,1,.8413-1.2376,2.5025,2.5025,0,0,1,1.3555-.3661h8.1772a2.517,2.517,0,0,1,1.3467.3661,2.0644,2.0644,0,0,1,.8506,1.2376l.6743,2.2175a4.433,4.433,0,0,0,.3921.8909,3.09,3.09,0,0,0,.25.396,3.4461,3.4461,0,0,0,1.1186.8514,6.0224,6.0224,0,0,1,2.2867,2.2468,6.8821,6.8821,0,0,1,.5673,1.2706A7.6129,7.6129,0,0,1,35,21.0408h.0576a1.4615,1.4615,0,0,1,1.1089.4355,1.6773,1.6773,0,0,1,.4155,1.2077v2.5343a1.6924,1.6924,0,0,1-.4155,1.1879,1.4286,1.4286,0,0,1-1.1089.4554H34.88L35,34.92a7.54,7.54,0,0,1-.4141,2.4816,6.9189,6.9189,0,0,1-.5678,1.27A6.0176,6.0176,0,0,1,31.7314,40.9186ZM18.24,12.312h9.5889l-.1157-.3778a1.3435,1.3435,0,0,0-.419-.54,1.7145,1.7145,0,0,0-.976-.2719H19.7217a1.7025,1.7025,0,0,0-.9839.2719,1.3635,1.3635,0,0,0-.4536.7859ZM17.4985,14.5h11l-.3266-1.068H17.86ZM27.76,43.688H18.1714l.1157.3777a1.3435,1.3435,0,0,0,.419.54,1.7137,1.7137,0,0,0,.976.2719h6.5962a1.7017,1.7017,0,0,0,.9839-.2719,1.3635,1.3635,0,0,0,.4536-.7859Zm.7412-2.188h-11l.3266,1.068H28.14Zm3.8769-4.0988A4.2493,4.2493,0,0,0,33,35.2068V20.7931A4.518,4.518,0,0,0,28.707,16.5H17.293a4.2119,4.2119,0,0,0-.4439.0447A4.3067,4.3067,0,0,0,13,20.7931V35.2068a4.3079,4.3079,0,0,0,3.8584,4.2494,4.2072,4.2072,0,0,0,.4346.0438H28.707a4.1942,4.1942,0,0,0,.4424-.0446A4.2652,4.2652,0,0,0,32.3784,37.4012Z"></path>
</svg>